HIERARCHY
ROOT Hips
{
	OFFSET 0.000000 0.000000 0.000000
	CHANNELS 6 Xposition Yposition Zposition Zrotation Yrotation Xrotation 
	JOINT LHipJoint
	{
		OFFSET 0.000000 0.000000 0.000000
		CHANNELS 3 Zrotation Yrotation Xrotation
		JOINT LeftUpLeg
		{
			OFFSET 1.363060 -1.794630 0.839290
			CHANNELS 3 Zrotation Yrotation Xrotation
			JOINT LeftLeg
			{
				OFFSET 2.448110 -6.726130 0.000000
				CHANNELS 3 Zrotation Yrotation Xrotation
				JOINT LeftFoot
				{
					OFFSET 2.562200 -7.039590 0.000000
					CHANNELS 3 Zrotation Yrotation Xrotation
					JOINT LeftToeBase
					{
						OFFSET 0.157640 -0.433110 2.322550
						CHANNELS 3 Zrotation Yrotation Xrotation
						End Site
						{
							OFFSET 0.000000 0.000000 0.000000
						}
					}
				}
			}
		}
	}
	JOINT RHipJoint
	{
		OFFSET 0.000000 0.000000 0.000000
		CHANNELS 3 Zrotation Yrotation Xrotation
		JOINT RightUpLeg
		{
			OFFSET -1.305520 -1.794630 0.839290
			CHANNELS 3 Zrotation Yrotation Xrotation
			JOINT RightLeg
			{
				OFFSET -2.542530 -6.985550 0.000000
				CHANNELS 3 Zrotation Yrotation Xrotation
				JOINT RightFoot
				{
					OFFSET -2.568260 -7.056230 0.000000
					CHANNELS 3 Zrotation Yrotation Xrotation
					JOINT RightToeBase
					{
						OFFSET -0.164730 -0.452590 2.363150
						CHANNELS 3 Zrotation Yrotation Xrotation
						End Site
						{
							OFFSET 0.000000 0.000000 0.000000
						}
					}
				}
			}
		}
	}
	JOINT LowerBack
	{
		OFFSET 0.000000 0.000000 0.000000
		CHANNELS 3 Zrotation Yrotation Xrotation
		JOINT Spine
		{
			OFFSET 0.028270 2.035590 -0.193380
			CHANNELS 3 Zrotation Yrotation Xrotation
			JOINT Spine1
			{
				OFFSET 0.056720 2.048850 -0.042750
				CHANNELS 3 Zrotation Yrotation Xrotation
				JOINT Neck
				{
					OFFSET 0.000000 0.000000 0.000000
					CHANNELS 3 Zrotation Yrotation Xrotation
					JOINT Neck1
					{
						OFFSET -0.054170 1.746240 0.172020
						CHANNELS 3 Zrotation Yrotation Xrotation
						JOINT Head
						{
							OFFSET 0.104070 1.761360 -0.123970
							CHANNELS 3 Zrotation Yrotation Xrotation
							End Site
							{
								OFFSET 0.000000 0.000000 0.000000
							}
						}
					}
				}
				JOINT LeftShoulder
				{
					OFFSET 0.000000 0.000000 0.000000
					CHANNELS 3 Zrotation Yrotation Xrotation
					JOINT LeftArm
					{
						OFFSET 3.362410 1.200890 -0.311210
						CHANNELS 3 Zrotation Yrotation Xrotation
						JOINT LeftForeArm
						{
							OFFSET 4.983000 -0.000000 -0.000000
							CHANNELS 3 Zrotation Yrotation Xrotation
							JOINT LeftHand
							{
								OFFSET 3.483560 -0.000000 -0.000000
								CHANNELS 3 Zrotation Yrotation Xrotation
								JOINT LeftFingerBase
								{
									OFFSET 0.000000 0.000000 0.000000
									CHANNELS 3 Zrotation Yrotation Xrotation
									JOINT LeftHandIndex1
									{
										OFFSET 0.715260 -0.000000 -0.000000
										CHANNELS 3 Zrotation Yrotation Xrotation
										End Site
										{
											OFFSET 0.000000 0.000000 0.000000
										}
									}
								}
								JOINT LThumb
								{
									OFFSET 0.000000 0.000000 0.000000
									CHANNELS 3 Zrotation Yrotation Xrotation
									End Site
									{
										OFFSET 0.000000 0.000000 0.000000
									}
								}
							}
						}
					}
				}
				JOINT RightShoulder
				{
					OFFSET 0.000000 0.000000 0.000000
					CHANNELS 3 Zrotation Yrotation Xrotation
					JOINT RightArm
					{
						OFFSET -3.136600 1.374050 -0.404650
						CHANNELS 3 Zrotation Yrotation Xrotation
						JOINT RightForeArm
						{
							OFFSET -5.241900 -0.000000 -0.000000
							CHANNELS 3 Zrotation Yrotation Xrotation
							JOINT RightHand
							{
								OFFSET -3.444170 -0.000000 -0.000000
								CHANNELS 3 Zrotation Yrotation Xrotation
								JOINT RightFingerBase
								{
									OFFSET 0.000000 0.000000 0.000000
									CHANNELS 3 Zrotation Yrotation Xrotation
									JOINT RightHandIndex1
									{
										OFFSET -0.622530 -0.000000 -0.000000
										CHANNELS 3 Zrotation Yrotation Xrotation
										End Site
										{
											OFFSET 0.000000 0.000000 0.000000
										}
									}
								}
								JOINT RThumb
								{
									OFFSET 0.000000 0.000000 0.000000
									CHANNELS 3 Zrotation Yrotation Xrotation
									End Site
									{
										OFFSET 0.000000 0.000000 0.000000
									}
								}
							}
						}
					}
				}
			}
		}
	}
}
MOTION
Frames: 11
Frame Time: 0.008333
2.236888 17.567111 18.071782 -1.165284 -4.485306 17.951646 5.006878 -1.251068 -1.753715 -2.665817 -20.092938 -58.506498 1.193536 13.851953 29.511635 -8.714190 31.772788 -8.528130 2.352500 9.564700 27.578400 -5.342667 -0.449230 0.181879 36.081432 9.061634 -20.557156 -1.057729 -11.256507 31.237909 2.330874 -20.086744 -34.495012 -2.125600 -9.123000 26.180700 2.288759 3.398945 1.895073 0.525125 4.472908 -6.193387 -2.085828 2.373372 -4.463694 -0.683228 0.201751 -15.256872 5.824792 0.430563 9.903243 0.591800 0.414200 8.877100 -13.492841 -9.980541 4.503656 -48.863769 -6.982560 69.173716 112.630165 -51.418845 -84.418399 -1.955419 -3.940491 -59.009739 -17.790430 15.679497 -3.879000 -7.125000 0.000000 0.000000 -36.537800 43.225200 1.875400 13.627504 11.119460 6.091132 63.259449 15.282572 28.955449 -101.914556 52.395616 -73.868402 -1.759200 4.924869 -91.669957 18.497947 5.331648 0.904000 7.125000 0.000000 0.000000 29.165100 -25.587100 15.745700 
2.255380 17.560560 18.152935 -2.281348 -4.184636 18.240549 5.047844 -1.227013 -1.763284 -1.029971 -20.443623 -59.244552 1.065420 13.763864 29.200450 -8.216128 30.302677 -10.186849 2.781700 10.332900 30.061700 -5.414276 -0.485208 0.191847 37.368631 8.384042 -20.653209 -1.076352 -11.267052 31.283712 2.312769 -19.804216 -34.115302 -2.073600 -9.017700 25.850600 3.830682 3.295824 1.761652 0.627338 4.401177 -6.272537 -2.443498 2.272702 -4.766018 -0.717684 0.552362 -14.864981 5.765124 0.884653 9.201726 0.609600 0.582000 8.378500 -13.247177 -10.113910 4.423424 -48.492017 -7.895282 71.642918 109.206135 -51.904709 -80.860921 -1.743720 -3.855445 -54.834823 -18.122820 14.162249 -3.786100 -7.125000 0.000000 0.000000 -36.412100 42.235600 2.920600 13.466365 11.140605 6.035885 64.309572 15.152540 29.520919 -99.047588 52.539605 -70.792478 -1.836541 4.827887 -93.173203 19.000758 5.147660 0.906900 7.125000 0.000000 0.000000 29.558400 -25.679600 15.950900 
2.254535 17.545872 18.208094 -2.381932 -4.097421 18.337693 5.084127 -1.198280 -1.718814 -0.459021 -20.876842 -59.952517 0.910476 13.711049 29.111990 -7.395718 27.962937 -12.696760 3.493700 11.454300 33.827800 -5.431784 -0.505962 0.197509 37.565819 8.054972 -20.683242 -1.086364 -11.262103 31.290990 2.361636 -19.829240 -33.919020 -2.052200 -8.973900 25.713700 3.914416 3.098974 2.004318 0.674910 4.162466 -6.363480 -2.361040 2.132018 -5.387117 -0.681267 0.918837 -14.298240 5.668562 1.332642 8.416426 0.551900 0.756900 7.830800 -13.008675 -10.280918 4.365253 -48.007458 -8.893943 73.553592 105.667869 -52.240208 -77.080869 -1.432428 -3.845684 -51.857722 -17.653382 12.492165 -3.426500 -7.125000 0.000000 0.000000 -35.626900 41.197400 3.917300 13.300072 11.206040 5.978940 65.311175 15.018463 30.249643 -95.902914 52.608592 -67.366128 -1.929283 4.635815 -94.146403 18.625881 5.061368 0.863300 7.125000 0.000000 0.000000 29.449800 -25.799700 15.774800 
2.261297 17.538581 18.270649 -2.408015 -4.039017 18.283963 5.110022 -1.169581 -1.668093 -0.104199 -21.321909 -60.421911 0.801998 13.713808 29.187246 -6.564445 25.680419 -14.910896 4.130800 12.332400 36.918200 -5.425598 -0.531120 0.187130 37.648065 7.536304 -20.533694 -1.086555 -11.213614 31.206069 2.561904 -20.228601 -33.597273 -1.878900 -8.609100 24.580000 4.019715 2.853635 2.372011 0.701826 3.870437 -6.423181 -2.402353 1.962534 -5.861626 -0.508551 1.283054 -14.167115 5.533580 1.760333 7.804517 0.457300 0.937600 7.501800 -12.786838 -10.437293 4.307483 -47.389465 -9.929114 74.936695 102.470632 -52.384626 -73.885940 -1.888544 -3.751923 -50.332917 -20.852526 13.980894 -4.592500 -7.125000 0.000000 0.000000 -38.540600 41.933400 3.512500 13.127948 11.287557 5.914916 66.430227 15.015140 30.920885 -92.652014 52.625254 -63.780677 -1.999121 4.451669 -94.462358 18.292816 4.952270 0.809100 7.125000 0.000000 0.000000 29.390400 -25.971000 15.592400 
2.270068 17.518715 18.323800 -2.817050 -3.956542 18.053693 5.121532 -1.155061 -1.654942 0.485514 -21.617063 -60.559062 0.734471 13.692248 29.143354 -6.033476 24.225665 -16.092238 4.512000 12.812200 38.669400 -5.450749 -0.548664 0.185098 38.190069 7.270866 -20.190760 -1.114368 -11.229629 31.316190 2.686487 -20.655898 -33.653337 -1.703800 -8.219700 23.383500 4.538047 2.628444 3.173243 0.755583 3.652261 -6.453876 -2.506412 1.813823 -6.430041 -0.512618 1.586535 -14.069047 5.439524 2.137610 7.039946 0.438000 1.079700 7.115200 -12.580032 -10.637007 4.257025 -46.672604 -11.227030 76.195721 99.437107 -52.417498 -70.792380 -2.331165 -3.616351 -49.550403 -23.866153 15.931244 -6.008500 -7.125000 0.000000 0.000000 -41.570400 42.983000 2.565000 12.957618 11.379386 5.858080 67.514092 15.023600 31.273367 -89.286131 52.601780 -60.073880 -2.021647 4.342560 -94.300224 18.643251 4.540133 0.717100 7.125000 0.000000 0.000000 29.813600 -26.368400 15.558700 
2.286658 17.517341 18.414675 -2.515977 -3.878697 17.893710 5.111495 -1.149319 -1.617917 0.262799 -22.245860 -60.637669 0.727444 13.726136 29.147472 -6.136131 24.574926 -16.014086 4.516500 12.817700 38.689700 -5.401123 -0.567890 0.145601 37.804856 6.348638 -19.980358 -1.162480 -11.221455 31.428367 2.554838 -20.128973 -33.450081 -1.684900 -8.176400 23.251200 4.441535 2.357587 3.191939 0.753038 3.288622 -6.415258 -2.487377 1.626527 -6.423727 -0.682978 1.858420 -13.929112 5.422974 2.504166 6.222833 0.484400 1.215300 6.638500 -12.378137 -10.773046 4.190119 -45.795923 -12.823388 77.424913 96.360936 -52.415052 -67.545492 -2.626393 -3.538735 -49.192670 -26.205143 17.459608 -7.274100 -7.125000 0.000000 0.000000 -44.000600 43.814000 1.635500 12.747705 11.399684 5.823004 68.461352 14.968028 31.628673 -85.877632 52.592016 -56.325341 -2.041724 4.224681 -93.526751 18.789800 4.227071 0.623500 7.125000 0.000000 0.000000 30.111500 -26.726300 15.462700 
2.287080 17.497264 18.476491 -2.508790 -4.178395 17.818989 5.123577 -1.136979 -1.605397 0.274224 -22.281553 -60.797170 0.747543 13.772621 29.276068 -6.122805 24.578342 -16.218827 4.788100 13.141200 39.899200 -5.409939 -0.564062 0.156549 37.756002 6.694564 -19.572977 -1.175009 -11.233781 31.507346 2.458545 -19.996786 -33.683337 -1.789500 -8.413100 23.975900 4.225069 2.213040 3.583879 0.780955 3.107976 -6.447231 -2.288170 1.530207 -6.898467 -0.635105 2.236920 -13.597955 5.423006 2.978545 5.536933 0.476000 1.424800 6.229800 -12.186334 -10.937910 4.095569 -44.761853 -14.119883 78.577849 93.598487 -52.365951 -64.547360 -2.743860 -3.502890 -48.634343 -27.544572 18.312738 -8.093200 -7.125000 0.000000 0.000000 -45.468000 44.317300 0.987500 12.588704 11.471357 5.773785 69.240415 14.638902 32.057052 -82.344234 52.524003 -52.455282 -2.118177 4.088532 -92.394441 18.780613 4.489284 0.652600 7.125000 0.000000 0.000000 30.193100 -26.640300 15.592200 
2.294689 17.490713 18.552994 -2.444259 -4.397703 17.799974 5.133135 -1.118070 -1.570701 0.193106 -22.502217 -60.868084 0.756111 13.852217 29.542183 -5.885436 24.041726 -17.260863 5.058900 13.449800 41.076500 -5.412025 -0.570690 0.144600 37.627993 6.626855 -19.345196 -1.204955 -11.246556 31.588376 2.646370 -20.433303 -33.469925 -1.600400 -7.978800 22.649800 4.061851 2.018824 3.721550 0.811408 2.849866 -6.454363 -2.152451 1.396361 -7.091879 -0.394302 2.701692 -13.603470 5.435636 3.554814 5.179211 0.435200 1.704800 6.061200 -11.980383 -11.061282 3.968915 -43.626032 -15.361688 79.361918 90.919246 -52.312374 -61.616841 -2.785815 -3.477412 -47.164946 -28.693240 18.511705 -8.677400 -7.125000 0.000000 0.000000 -46.486000 44.407400 0.887800 12.417827 11.542362 5.739908 69.815929 14.545829 32.383912 -78.377428 52.374089 -48.213982 -2.191215 3.959647 -90.895510 18.927506 4.814268 0.702300 7.125000 0.000000 0.000000 30.370200 -26.502000 15.834100 
2.303459 17.485641 18.633936 -2.830292 -4.397807 17.919890 5.147669 -1.094735 -1.559123 0.670079 -22.787695 -61.132043 0.886038 14.000993 29.815578 -6.787722 26.854801 -17.321507 4.619700 12.942200 39.152700 -5.446543 -0.586267 0.134388 38.053342 6.391627 -19.278813 -1.242899 -11.278830 31.692507 3.009883 -21.282199 -33.067535 -1.249800 -7.088000 19.976200 4.472172 1.845318 3.776420 0.869332 2.655585 -6.463766 -2.204511 1.270810 -7.214867 -0.110897 3.134651 -13.780146 5.330069 4.065112 4.726690 0.334100 1.944100 5.893500 -11.753249 -11.199661 3.817152 -42.572329 -16.694714 79.836307 87.988203 -52.252392 -58.472701 -2.930670 -3.423260 -45.159816 -30.812844 18.815039 -9.711300 -7.125000 0.000000 0.000000 -48.187300 44.434900 0.898900 12.252095 11.600204 5.725425 70.223789 14.615582 32.397814 -74.181786 52.102120 -43.881796 -2.215769 3.811279 -88.877827 18.771723 4.965091 0.699700 7.125000 0.000000 0.000000 30.423200 -26.517500 15.858000 
2.309059 17.468840 18.700718 -3.228651 -4.425930 17.866255 5.172129 -1.082673 -1.624895 -1.230172 -20.761137 -61.263767 1.144262 14.093221 30.130825 -8.265243 30.735765 -13.924626 4.279400 12.523200 37.609000 -5.483339 -0.595063 0.144910 38.508772 6.335804 -19.000889 -1.284931 -11.319678 31.857292 3.126185 -21.596978 -32.985874 -1.102600 -6.671900 18.746800 4.845727 1.695880 4.222217 0.923085 2.515478 -6.458067 -2.231749 1.172687 -7.415196 0.029234 3.501068 -14.242547 5.261241 4.514401 4.209580 0.296000 2.145300 5.781600 -11.529660 -11.380188 3.629716 -41.375759 -18.141684 80.119321 85.108183 -52.140725 -55.443805 -3.112522 -3.363492 -42.963364 -33.424260 18.971711 -10.947400 -7.125000 0.000000 0.000000 -50.050100 44.279000 1.228400 12.072540 11.684841 5.726005 70.614552 14.805831 32.104069 -69.666978 51.638599 -39.416601 -2.188111 3.684334 -86.131880 18.770143 4.975678 0.671300 7.125000 0.000000 0.000000 30.616800 -26.631300 15.895500 
2.327129 17.455420 18.797827 -3.385266 -5.550363 17.885046 5.197327 -1.055018 -1.622358 -1.551366 -20.106699 -61.096704 1.243937 14.216531 30.671514 -8.295589 30.858088 -14.904823 4.441700 12.726100 38.351500 -5.505768 -0.593478 0.152359 38.285981 7.015059 -18.301328 -1.323842 -11.342055 31.982977 3.104477 -21.367182 -32.687061 -1.051700 -6.521100 18.304100 4.700362 1.863123 4.373723 0.900501 2.741680 -6.443726 -2.197395 1.280279 -7.533988 0.058469 3.831791 -14.418903 5.261361 4.935569 3.661056 0.305700 2.333900 5.566400 -11.335679 -11.517874 3.436173 -40.261319 -19.329198 80.094448 82.257823 -52.069563 -52.530837 -3.329820 -3.265178 -40.696712 -36.407723 19.167548 -12.444900 -7.125000 0.000000 0.000000 -52.058400 44.066900 1.715700 11.881640 11.727775 5.715725 70.992568 14.691746 31.882969 -65.194110 50.992108 -35.174488 -2.149554 3.552296 -83.267506 18.690843 5.131764 0.686900 7.125000 0.000000 0.000000 30.722000 -26.594400 16.001800 
